<svg width="33" height="33" viewBox="0 0 33 33" fill="none" xmlns="http://www.w3.org/2000/svg">
<g clip-path="url(#clip0_104_75)">
<path d="M10.86 0.368164H22.86C28.36 0.368164 32.86 4.86816 32.86 10.3682V22.3682C32.86 27.8682 28.36 32.3682 22.86 32.3682H10.86C5.35999 32.3682 0.859985 27.8682 0.859985 22.3682V10.3682C0.859985 4.86816 5.35999 0.368164 10.86 0.368164Z" fill="#FF5548"/>
<path d="M10.76 20.2681C10.46 20.5681 10.26 22.2681 10.26 22.7681C11.06 22.6681 11.96 22.5681 12.76 22.2681C12.06 21.5681 11.46 20.8681 10.76 20.2681ZM19.76 11.2681C20.46 11.9681 21.06 12.5681 21.76 13.2681C22.26 12.7681 22.76 12.2681 23.26 11.7681C22.56 11.0681 21.96 10.4681 21.26 9.76811C20.76 10.2681 20.26 10.7681 19.76 11.2681ZM20.76 14.2681C20.06 13.5681 19.46 12.9681 18.76 12.2681C16.46 14.5681 14.16 16.9681 11.86 19.2681C12.46 19.9681 13.16 20.5681 13.86 21.2681C16.06 18.8681 18.46 16.5681 20.76 14.2681ZM10.36 24.1681C9.45999 24.1681 8.85999 23.5681 8.85999 22.8681C8.95999 21.9681 9.05999 21.0681 9.25999 20.2681C9.35999 19.7681 9.65999 19.3681 9.95999 19.0681C13.46 15.6681 16.76 12.2681 20.16 8.86811C20.56 8.46811 21.06 8.26811 21.56 8.46811C21.76 8.56811 21.96 8.66811 22.16 8.76811C22.86 9.46811 23.56 10.0681 24.16 10.7681C24.76 11.3681 24.76 12.1681 24.16 12.7681C22.16 14.7681 20.16 16.7681 18.16 18.7681C16.76 20.1681 15.36 21.5681 13.96 22.9681C13.66 23.2681 13.26 23.5681 12.76 23.6681C11.96 23.9681 11.06 24.0681 10.36 24.1681Z" fill="white"/>
</g>
<defs>
<clipPath id="clip0_104_75">
<rect width="32" height="32" fill="white" transform="translate(0.859985 0.368164)"/>
</clipPath>
</defs>
</svg>
