<svg width="33" height="33" viewBox="0 0 33 33" fill="none" xmlns="http://www.w3.org/2000/svg">
<g clip-path="url(#clip0_104_61)">
<path d="M10.42 0.368164H22.42C27.92 0.368164 32.42 4.86816 32.42 10.3682V22.3682C32.42 27.8682 27.92 32.3682 22.42 32.3682H10.42C4.91998 32.3682 0.419983 27.8682 0.419983 22.3682V10.3682C0.419983 4.86816 4.91998 0.368164 10.42 0.368164Z" fill="#6458F9"/>
<path d="M16.42 22.0681C16.52 21.9681 16.52 21.9681 16.62 21.8681C18.22 20.2681 19.92 18.6681 21.52 17.0681C22.62 15.9681 22.92 14.6681 22.42 13.2681C22.02 12.0681 20.92 11.2681 19.72 11.2681C18.72 11.2681 17.82 11.5681 17.12 12.2681C16.62 12.7681 16.12 12.7681 15.62 12.2681C15.42 12.0681 15.12 11.8681 14.82 11.6681C14.22 11.1681 13.52 10.9681 12.72 11.1681C10.52 11.7681 9.52 14.1681 10.52 16.1681C10.72 16.4681 10.82 16.7681 11.12 16.9681C12.92 18.6681 14.62 20.3681 16.42 22.0681ZM16.32 10.5681C16.92 10.2681 17.42 9.96811 18.02 9.76811C20.92 8.76811 23.42 10.5681 24.02 13.1681C24.52 15.0681 24.02 16.7681 22.62 18.2681C20.82 20.0681 19.02 21.7681 17.32 23.5681C16.72 24.1681 15.92 24.1681 15.32 23.5681C13.52 21.7681 11.72 20.0681 9.92 18.2681C7.82 16.1681 7.92 12.7681 10.02 10.7681C11.12 9.66811 12.52 9.26811 14.02 9.56811C14.82 9.66811 15.52 10.1681 16.12 10.6681C16.22 10.5681 16.32 10.5681 16.32 10.5681Z" fill="white"/>
</g>
<defs>
<clipPath id="clip0_104_61">
<rect width="32" height="32" fill="white" transform="translate(0.419983 0.368164)"/>
</clipPath>
</defs>
</svg>
