<svg width="33" height="33" viewBox="0 0 33 33" fill="none" xmlns="http://www.w3.org/2000/svg">
<g clip-path="url(#clip0_104_47)">
<path d="M10.86 0.648438H22.86C28.36 0.648438 32.86 5.14844 32.86 10.6484V22.6484C32.86 28.1484 28.36 32.6484 22.86 32.6484H10.86C5.35999 32.6484 0.859985 28.1484 0.859985 22.6484V10.6484C0.859985 5.14844 5.35999 0.648438 10.86 0.648438Z" fill="#38E0C4"/>
<path d="M20.26 9.44854C19.26 9.44854 18.46 10.2485 18.46 11.1485C18.46 12.0485 19.26 12.8485 20.16 12.8485C21.16 12.8485 21.96 12.0485 21.96 11.1485C21.96 10.2485 21.16 9.44854 20.26 9.44854ZM21.96 21.0485C21.96 20.1485 21.16 19.3485 20.26 19.3485C19.36 19.3485 18.56 20.1485 18.56 21.0485C18.56 21.9485 19.36 22.7485 20.26 22.7485C21.16 22.8485 21.96 22.0485 21.96 21.0485ZM11.46 14.6485C10.46 14.6485 9.75998 15.4485 9.75998 16.3485C9.75998 17.3485 10.56 18.0485 11.56 18.0485C12.56 18.0485 13.26 17.2485 13.26 16.3485C13.16 15.3485 12.36 14.6485 11.46 14.6485ZM13.66 19.1485C13.16 19.5485 12.56 19.7485 11.96 19.8485C10.46 20.1485 8.85998 19.2485 8.15998 17.8485C7.15998 15.6485 8.45998 13.1485 10.76 12.7485C11.86 12.6485 12.76 12.8485 13.56 13.4485C13.66 13.5485 13.76 13.5485 13.86 13.4485C14.76 12.8485 15.56 12.1485 16.46 11.5485C16.56 11.4485 16.56 11.3485 16.56 11.2485C16.56 10.2485 16.86 9.44854 17.56 8.74854C18.96 7.24854 21.46 7.24854 22.86 8.74854C24.06 10.0485 24.06 11.8485 23.06 13.3485C22.06 14.7485 19.96 15.1485 18.46 14.2485C17.96 14.0485 17.56 13.6485 17.26 13.2485C16.46 13.8485 15.66 14.4485 14.76 15.0485C15.06 15.9485 15.06 16.7485 14.76 17.6485C15.56 18.2485 16.26 18.7485 17.06 19.3485C17.36 18.8485 17.76 18.3485 18.26 18.0485C19.56 17.3485 20.86 17.3485 22.06 18.0485C23.26 18.8485 23.86 20.0485 23.66 21.4485C23.56 23.4485 21.86 24.7485 19.86 24.6485C18.26 24.5485 16.86 23.2485 16.66 21.6485C16.66 21.4485 16.56 21.3485 16.36 21.2485C15.56 20.6485 14.66 20.0485 13.86 19.3485C13.86 19.2485 13.76 19.1485 13.66 19.1485Z" fill="white"/>
</g>
<defs>
<clipPath id="clip0_104_47">
<rect width="32" height="32" fill="white" transform="translate(0.859985 0.648438)"/>
</clipPath>
</defs>
</svg>
