<svg width="33" height="33" viewBox="0 0 33 33" fill="none" xmlns="http://www.w3.org/2000/svg">
<g clip-path="url(#clip0_104_33)">
<path d="M10.42 0.648438H22.42C27.92 0.648438 32.42 5.14844 32.42 10.6484V22.6484C32.42 28.1484 27.92 32.6484 22.42 32.6484H10.42C4.91998 32.6484 0.419983 28.1484 0.419983 22.6484V10.6484C0.419983 5.14844 4.91998 0.648438 10.42 0.648438Z" fill="#FFC82C"/>
<path d="M21.12 15.9482C20.82 16.6482 20.42 17.2482 20.02 17.8482C19.52 18.6482 19.02 19.5482 18.82 20.5482C18.82 20.6482 18.72 20.6482 18.62 20.6482C17.82 20.6482 17.12 20.6482 16.32 20.6482C15.62 20.6482 14.82 20.6482 14.12 20.6482C14.02 20.6482 13.92 20.6482 13.92 20.4482C13.72 19.5482 13.32 18.8482 12.82 18.0482C12.42 17.2482 11.82 16.5482 11.52 15.6482C10.62 13.5482 11.42 11.2482 13.42 10.1482C15.42 9.04824 17.52 9.04824 19.52 10.3482C21.52 11.4482 22.12 13.8482 21.12 15.9482ZM18.72 24.7482C18.72 24.9482 18.62 25.0482 18.42 25.0482C17.12 25.0482 15.72 25.0482 14.42 25.0482C14.22 25.0482 14.12 24.9482 14.12 24.7482C14.12 23.9482 14.12 23.2482 14.12 22.4482H18.72V24.1482C18.72 24.3482 18.72 24.5482 18.72 24.7482ZM23.12 12.5482C22.62 10.4482 21.32 9.04824 19.42 8.24824C17.92 7.64824 16.32 7.44824 14.62 7.84824C13.02 8.14824 11.62 8.94824 10.62 10.3482C9.21996 12.3482 9.01996 14.5482 10.02 16.7482C10.42 17.5482 11.02 18.3482 11.42 19.1482C11.82 19.9482 12.22 20.6482 12.32 21.5482C12.32 22.5482 12.32 23.5482 12.32 24.5482C12.32 25.3482 12.62 26.0482 13.32 26.4482H19.42C20.02 26.0482 20.42 25.5482 20.42 24.7482C20.42 23.8482 20.42 23.0482 20.42 22.1482C20.42 21.1482 20.62 20.2482 21.12 19.4482C21.62 18.6482 22.12 17.8482 22.52 17.0482C23.32 15.7482 23.52 14.1482 23.12 12.5482Z" fill="white"/>
</g>
<defs>
<clipPath id="clip0_104_33">
<rect width="32" height="32" fill="white" transform="translate(0.419983 0.648438)"/>
</clipPath>
</defs>
</svg>
